<svg xmlns="http://www.w3.org/2000/svg" width="161.643" height="52" viewBox="0 0 161.643 52">
    <defs>
        <style>
            .cls-1{fill:#051a31}
        </style>
    </defs>
    <g id="logo" transform="translate(-96.661 -579.785)">
        <g id="Grupo_6517" data-name="Grupo 6517" transform="translate(159.949 596.908)">
            <g id="Grupo_6516" data-name="Grupo 6516">
                <g id="Grupo_6514" data-name="Grupo 6514">
                    <path id="Caminho_5976" d="M254.722 641.787q-.414 0-.951-.024c-.358-.016-.727-.049-1.11-.1s-.765-.11-1.146-.183a5.7 5.7 0 0 1-1.061-.306 1.814 1.814 0 0 1-1.342-1.78v-11.39a1.071 1.071 0 0 1 .281-.792 2 2 0 0 1 .769-.452 10.294 10.294 0 0 1 2.218-.452q1.171-.109 2.1-.109a12.038 12.038 0 0 1 3.451.463 7.115 7.115 0 0 1 2.658 1.427 6.422 6.422 0 0 1 1.719 2.428 8.967 8.967 0 0 1 .611 3.462 9.063 9.063 0 0 1-.586 3.4 6.577 6.577 0 0 1-1.67 2.439 6.983 6.983 0 0 1-2.6 1.476 10.844 10.844 0 0 1-3.341.493zm-1.366-3.561c.18.034.4.062.658.087s.5.036.732.036a4.559 4.559 0 0 0 1.524-.245 3.047 3.047 0 0 0 1.2-.756 3.491 3.491 0 0 0 .78-1.329 6.074 6.074 0 0 0 .281-1.963 4.722 4.722 0 0 0-1.024-3.3 3.542 3.542 0 0 0-2.732-1.11q-.342 0-.7.024t-.72.074z" class="cls-1" data-name="Caminho 5976" transform="translate(-249.113 -624.055)"/>
                    <path id="Caminho_5977" d="M287.242 623.227a2.141 2.141 0 0 1 .621-1.561 2.453 2.453 0 0 1 3.293 0 2.27 2.27 0 0 1 0 3.122 2.456 2.456 0 0 1-3.293 0 2.141 2.141 0 0 1-.621-1.561zm4.34 15.12a35.82 35.82 0 0 1-.792.134 6.488 6.488 0 0 1-1.06.086 5.706 5.706 0 0 1-.964-.073 1.654 1.654 0 0 1-.72-.293 1.41 1.41 0 0 1-.451-.6 2.585 2.585 0 0 1-.159-.987v-9.924q.268-.049.793-.134a6.587 6.587 0 0 1 1.061-.086 5.654 5.654 0 0 1 .963.074 1.645 1.645 0 0 1 .719.292 1.412 1.412 0 0 1 .452.6 2.591 2.591 0 0 1 .158.988z" class="cls-1" data-name="Caminho 5977" transform="translate(-271.413 -621.031)"/>
                    <path id="Caminho_5978" d="M310 636.638a3.432 3.432 0 0 0-1.159.195 2.709 2.709 0 0 0-.952.574 2.819 2.819 0 0 0-.646.938 3.3 3.3 0 0 0-.243 1.318 2.852 2.852 0 0 0 .865 2.269 3.1 3.1 0 0 0 2.111.755 4.153 4.153 0 0 0 1.268-.17 7.84 7.84 0 0 0 .951-.365 2.54 2.54 0 0 1 .732.744 1.821 1.821 0 0 1 .244.963 1.708 1.708 0 0 1-.951 1.548 5.3 5.3 0 0 1-2.634.549 8.105 8.105 0 0 1-2.78-.451 6.275 6.275 0 0 1-2.133-1.269 5.6 5.6 0 0 1-1.379-1.963 6.421 6.421 0 0 1-.487-2.537 7.011 7.011 0 0 1 .523-2.817 5.454 5.454 0 0 1 1.427-1.988 6.068 6.068 0 0 1 2.085-1.17 7.914 7.914 0 0 1 2.5-.39 4.866 4.866 0 0 1 2.706.634 1.9 1.9 0 0 1 .952 1.634 1.778 1.778 0 0 1-.22.866 3.006 3.006 0 0 1-.512.695 7.948 7.948 0 0 0-1-.377 4.229 4.229 0 0 0-1.268-.185z" class="cls-1" data-name="Caminho 5978" transform="translate(-280.518 -628.248)"/>
                    <path id="Caminho_5979" d="M336.823 633.37a10.06 10.06 0 0 1 2.4.267 5.4 5.4 0 0 1 1.854.817 3.686 3.686 0 0 1 1.182 1.391 4.455 4.455 0 0 1 .415 1.988v5.467a1.511 1.511 0 0 1-.354 1.036 3.5 3.5 0 0 1-.841.694 8.712 8.712 0 0 1-4.463.952 10.167 10.167 0 0 1-2.33-.245 5.479 5.479 0 0 1-1.779-.731 3.348 3.348 0 0 1-1.146-1.244 3.67 3.67 0 0 1-.4-1.757 3.3 3.3 0 0 1 1-2.584 5.4 5.4 0 0 1 3.1-1.122l3.194-.341v-.171a1.045 1.045 0 0 0-.622-1.012 4.188 4.188 0 0 0-1.793-.3 8.255 8.255 0 0 0-1.8.2 9.495 9.495 0 0 0-1.585.487 1.672 1.672 0 0 1-.536-.671 2.115 2.115 0 0 1-.22-.938 1.573 1.573 0 0 1 .3-1.013 2.386 2.386 0 0 1 .939-.646 7.355 7.355 0 0 1 1.671-.39 14.476 14.476 0 0 1 1.814-.134zm.2 9.586a5.521 5.521 0 0 0 .914-.086 2.186 2.186 0 0 0 .744-.232v-1.95l-1.756.145a2.725 2.725 0 0 0-1.122.293.789.789 0 0 0-.438.732.967.967 0 0 0 .377.792 2.063 2.063 0 0 0 1.276.306z" class="cls-1" data-name="Caminho 5979" transform="translate(-297.216 -628.248)"/>
                    <path id="Caminho_5980" d="M374.317 642.017a3.431 3.431 0 0 1-1.39 2.9 6.737 6.737 0 0 1-4.1 1.049 11.589 11.589 0 0 1-1.9-.146 5.423 5.423 0 0 1-1.5-.452 2.677 2.677 0 0 1-.976-.768 1.758 1.758 0 0 1-.354-1.1 1.879 1.879 0 0 1 .245-.988 2.471 2.471 0 0 1 .585-.67 9.73 9.73 0 0 0 1.622.695 6.666 6.666 0 0 0 2.108.3 2.474 2.474 0 0 0 1.159-.219.659.659 0 0 0 .4-.586.613.613 0 0 0-.293-.537 2.729 2.729 0 0 0-.976-.317l-.731-.146a6.859 6.859 0 0 1-3.159-1.305 3.173 3.173 0 0 1-1.037-2.548 3.376 3.376 0 0 1 1.489-2.854 5.518 5.518 0 0 1 1.694-.755 8.339 8.339 0 0 1 2.183-.269 10.066 10.066 0 0 1 1.7.135 5.519 5.519 0 0 1 1.377.4 2.5 2.5 0 0 1 .927.694 1.577 1.577 0 0 1 .341 1.013 2.085 2.085 0 0 1-.207.963 2.18 2.18 0 0 1-.524.67 3.131 3.131 0 0 0-.585-.257c-.262-.089-.545-.17-.855-.243s-.622-.134-.939-.183a5.7 5.7 0 0 0-.866-.073 3.359 3.359 0 0 0-1.244.182.609.609 0 0 0-.439.574.515.515 0 0 0 .243.438 2.807 2.807 0 0 0 .928.319l.755.17a7.192 7.192 0 0 1 3.329 1.475 3.2 3.2 0 0 1 .99 2.439z" class="cls-1" data-name="Caminho 5980" transform="translate(-316.32 -628.213)"/>
                </g>
                <g id="Grupo_6515" data-name="Grupo 6515" transform="translate(60.968 2.343)">
                    <path id="Caminho_5981" d="M406.51 638.21a2.336 2.336 0 0 1-.816.426 3.821 3.821 0 0 1-1.159.159 4.114 4.114 0 0 1-1.451-.219 1.17 1.17 0 0 1-.745-.757q-.683-2.145-1.122-3.475t-.683-2.33h-.122q-.073 1.44-.11 2.622t-.049 2.305q-.011 1.121-.048 2.268t-.11 2.536a4.283 4.283 0 0 1-.829.207 6.145 6.145 0 0 1-1.025.085 3.4 3.4 0 0 1-1.67-.341 1.306 1.306 0 0 1-.6-1.244l.707-12.438a2.342 2.342 0 0 1 .854-.682 3.856 3.856 0 0 1 1.853-.366 4.224 4.224 0 0 1 2.024.4 2.385 2.385 0 0 1 1.073 1.3q.22.585.476 1.342t.513 1.56q.257.806.5 1.6t.439 1.426h.122q.585-2.047 1.17-3.962t1.073-3.208a3.961 3.961 0 0 1 .939-.33 5.688 5.688 0 0 1 1.281-.133 4.624 4.624 0 0 1 1.95.353 1.4 1.4 0 0 1 .878 1.012q.1.489.207 1.5t.232 2.281q.122 1.267.245 2.682t.232 2.72q.11 1.3.183 2.39t.1 1.669a3.146 3.146 0 0 1-.865.355 5.036 5.036 0 0 1-1.16.109 3.471 3.471 0 0 1-1.56-.316 1.342 1.342 0 0 1-.683-1.244q-.145-2.658-.182-4.78t-.11-3.561h-.122q-.245.95-.707 2.39t-1.123 3.689z" class="cls-1" data-name="Caminho 5981" transform="translate(-395.975 -626.845)"/>
                    <path id="Caminho_5982" d="M443.561 629.468a2.107 2.107 0 0 1 2.268-2.269h8.048a2.932 2.932 0 0 1 .3.707 3.138 3.138 0 0 1 .135.928 1.786 1.786 0 0 1-.4 1.317 1.456 1.456 0 0 1-1.06.39h-5.147v2.268h5.495a2.98 2.98 0 0 1 .3.7 3.032 3.032 0 0 1 .135.914 1.821 1.821 0 0 1-.391 1.316 1.416 1.416 0 0 1-1.049.391h-4.488v2.561h6.269a2.949 2.949 0 0 1 .3.707 3.165 3.165 0 0 1 .135.928 1.832 1.832 0 0 1-.4 1.329 1.437 1.437 0 0 1-1.06.4h-7.122a2.1 2.1 0 0 1-2.268-2.268z" class="cls-1" data-name="Caminho 5982" transform="translate(-423.806 -626.981)"/>
                    <path id="Caminho_5983" d="M480.023 641.575a6.775 6.775 0 0 1-.84.147 8.922 8.922 0 0 1-1.135.073 5.161 5.161 0 0 1-.988-.085 1.732 1.732 0 0 1-.719-.306 1.3 1.3 0 0 1-.439-.608 2.979 2.979 0 0 1-.147-1.025v-12.879c.179-.032.463-.076.854-.134a7.887 7.887 0 0 1 1.122-.084 5.148 5.148 0 0 1 .987.084 1.756 1.756 0 0 1 .721.306 1.316 1.316 0 0 1 .438.609 2.959 2.959 0 0 1 .146 1.025z" class="cls-1" data-name="Caminho 5983" transform="translate(-442.636 -626.674)"/>
                </g>
            </g>
        </g>
        <g id="Grupo_6518" data-name="Grupo 6518" transform="translate(96.661 579.785)">
            <path id="Caminho_5984" d="M148.55 603.575c-.912-13.793-12.739-23.681-26.481-23.778-7.4-.053-17.011-.143-22.1 5.357a11.572 11.572 0 0 0-2.847 5.4c-1.01 3.694-.192 10.957.785 18.828a77.365 77.365 0 0 0 1.688 9.341c.23-.323.482-.651.781-.993.379-.422.669-.732.947-1.014a2.742 2.742 0 0 1 1.115-.739 92.194 92.194 0 0 0-.245-1.2c-.48-2.235-2.136-13.692-2.146-17.046-.018-5.9 1.529-12.11 7.467-14.552 4.921-2.023 10.652-1.471 15.847-1.5a22.973 22.973 0 0 1 20.6 33.125h.011l.071.02a3.678 3.678 0 0 0 .651.122 3.15 3.15 0 0 0 .662.009h.026a2.188 2.188 0 0 0 1.14-.633 3.9 3.9 0 0 0 .97-1.726q.288-.938.5-1.9a25.01 25.01 0 0 0 .548-7.127z" class="cls-1" data-name="Caminho 5984" transform="translate(-96.661 -579.785)"/>
            <path id="Caminho_5985" d="M147.427 687.667a9.641 9.641 0 0 1-1.181-.325l-.489-.186c-4.716 2.753-10.2 3.562-15.711 3.708-.423.011-.815.012-1.2.009l-.208.059c-.379.11-.843.241-1.312.351-.38.1-.843.21-1.316.307-.425.093-.869.187-1.324.27-.341.072-.68.122-1.008.171l-1.653.246-2.079.215h-.715a23.423 23.423 0 0 1-1.39-.069 19.44 19.44 0 0 1-2.771-.417c-.132-.03-.256-.065-.384-.1 2.516 2.7 5.8 2.845 10.662 2.584a94.281 94.281 0 0 0 10.73-1.363q1.544-.264 3.08-.565c.6-.118 1.189-.251 1.776-.413a24.63 24.63 0 0 0 5.572-2.321q.724-.413 1.414-.88c.227-.153.452-.309.675-.467.109-.078.543-.493.663-.476a21.025 21.025 0 0 1-1.588-.284z" class="cls-1" data-name="Caminho 5985" transform="translate(-107.202 -642.582)"/>
            <path id="Caminho_5986" d="M149.611 606.688l-.051-.4c-.107-.567-.417-1.124-1.051-1.169a3.724 3.724 0 0 0-1.494.15 1.433 1.433 0 0 0-.294.146 1.539 1.539 0 0 0-.145.107l-.12.116a2.193 2.193 0 0 0-.236.269 2.488 2.488 0 0 0-.191.3 2.416 2.416 0 0 0-.232.665 2.96 2.96 0 0 0-.042.351 1.947 1.947 0 0 0 0 .3 21.23 21.23 0 0 0 1.65 4.155 34.446 34.446 0 0 0 2.342 3.895 46.528 46.528 0 0 0 2.77 3.625c.246.29.495.578.747.857a3.149 3.149 0 0 0 .792.622 1.739 1.739 0 0 0 1.775.091 2.206 2.206 0 0 0 .2-.127c.06-.052.108-.078.184-.154a1.445 1.445 0 0 0 .3-.346 1.126 1.126 0 0 0 .119-.823 5.463 5.463 0 0 0-1.02-1.861c-.454-.646-.868-1.265-1.311-1.915l-1.264-1.926c-.427-.639-.841-1.294-1.244-1.947s-.8-1.327-1.149-2.03a12.924 12.924 0 0 1-.467-1.076 9.452 9.452 0 0 1-.418-1.1 4.948 4.948 0 0 1-.15-.775z" class="cls-1" data-name="Caminho 5986" transform="translate(-125.372 -594.592)"/>
            <path id="Caminho_5987" d="M140.066 611.05l-.007-.029v-.013c-.007-.07-.007-.127-.009-.185H140a4.247 4.247 0 0 0-.616.075 3.128 3.128 0 0 0-.363.093 3.338 3.338 0 0 0-.4.166 2.018 2.018 0 0 0-.734.575 2.039 2.039 0 0 0-.376 1 12.251 12.251 0 0 0 1.408 6.225 29.043 29.043 0 0 0 2.094 3.4 21.253 21.253 0 0 0 6.386 6 1.92 1.92 0 0 0 1.779.183 2.939 2.939 0 0 0 .8-.555 1.161 1.161 0 0 0 .263-.322 1.108 1.108 0 0 0 .121-.384 2.528 2.528 0 0 0-.589-1.741l-.43-.518a3.54 3.54 0 0 1-.546-.241 3.987 3.987 0 0 1-1.016-.791c-.264-.289-.519-.58-.772-.876q-1.511-1.77-2.845-3.679a35.477 35.477 0 0 1-2.427-3.985 22.685 22.685 0 0 1-.969-2.139 15.923 15.923 0 0 1-.702-2.259z" class="cls-1" data-name="Caminho 5987" transform="translate(-120.528 -597.938)"/>
            <path id="Caminho_5988" d="M125.435 627.21a1.644 1.644 0 0 0-.678.417 2.658 2.658 0 0 0-.673 1.572 2.29 2.29 0 0 0-.029.539 2.748 2.748 0 0 0 .034.577l.093.611c.05.208.119.418.179.633a8.933 8.933 0 0 0 1.262 2.584 21.658 21.658 0 0 0 2.05 2.59 22.775 22.775 0 0 0 2.563 2.446c.231.193.472.374.714.554s.474.329.762.533a6.925 6.925 0 0 0 1.529.825 1.394 1.394 0 0 0 1.931-.622q-.225-.146-.443-.3a22.573 22.573 0 0 1-1.78-1.426l-.827-.727a21.427 21.427 0 0 1-.829-.745 26.034 26.034 0 0 1-1.522-1.568 23.85 23.85 0 0 1-2.481-3.312 13.946 13.946 0 0 1-1.552-3.411 8.283 8.283 0 0 1-.303-1.77z" class="cls-1" data-name="Caminho 5988" transform="translate(-112.682 -607.522)"/>
            <path id="Caminho_5989" d="M169.09 604.123a.678.678 0 0 0-.138-.293 2.52 2.52 0 0 0-.255-.311 7.24 7.24 0 0 0-1.158-.972l-.274-.181a.888.888 0 0 0-.228-.1 1.249 1.249 0 0 0-.471-.015 2.763 2.763 0 0 0-.686.194c-.133.055-.2.092-.222.1l-.866.567c-.276.183-.621.394-.989.667s-.8.562-1.225.927l-.672.555-.709.637a3.283 3.283 0 0 0-.618.641.963.963 0 0 0-.192.678 1.213 1.213 0 0 0 .372.668l.07.066.1.084c.047.042.122.081.181.123a.843.843 0 0 0 .2.11 1.229 1.229 0 0 0 .206.087 2.841 2.841 0 0 0 1.912-.159 14.058 14.058 0 0 0 1.972-.978c.307-.192.612-.372.917-.569l.9-.613a6.452 6.452 0 0 0 1.508-1.257 3.239 3.239 0 0 0 .24-.353l.1-.213.026-.053a.029.029 0 0 0-.001-.037z" class="cls-1" data-name="Caminho 5989" transform="translate(-133.928 -592.914)"/>
            <path id="Caminho_5990" d="M164.424 595.471a1.173 1.173 0 0 0-.578-.24 2.82 2.82 0 0 0-1.142.122c-.353.094-.7.177-1.056.259s-.714.166-1.067.288a6.123 6.123 0 0 0-1.027.444c-.326.19-.631.394-.932.594-.19.125-.379.252-.57.375a11.292 11.292 0 0 0-1.665 1.21c-.135.128-.267.26-.4.387l-.112.106-.015-.006h-.007a3.181 3.181 0 0 0-.078.921c.01.2.092.252.127.125a1.212 1.212 0 0 1 .213-.423 24.368 24.368 0 0 1 4.774-3.133 8.6 8.6 0 0 1 2.9-.77.731.731 0 0 1 .21.081c.414.254.469.874-.3 1.931.04-.007.077-.014.12-.018a1.876 1.876 0 0 1 .525.026 3.139 3.139 0 0 0 .291-.565 1.968 1.968 0 0 0 .123-1.169 1.017 1.017 0 0 0-.334-.545z" class="cls-1" data-name="Caminho 5990" transform="translate(-131.231 -588.808)"/>
            <path id="Caminho_5991" d="M142.978 626.684c.151-.181.3-.363.444-.551.22-.287.451-.566.663-.859a9.484 9.484 0 0 0 1.631-2.671 4.406 4.406 0 0 0 .191-.94 2.863 2.863 0 0 0-.075-.981 2.123 2.123 0 0 0-.484-.883 2.728 2.728 0 0 1-.737-1.206 8.927 8.927 0 0 1 .143-1.488 5.8 5.8 0 0 0-.165-1.592 3.485 3.485 0 0 0-.719-1.461c-.321-.367-.9-.5-1.148-.922a2.638 2.638 0 0 1-.105-1.393 4.194 4.194 0 0 0-.306-1.466 3.282 3.282 0 0 0-.909-1.44 4.146 4.146 0 0 0-.67-.487c-.186-.111-.425-.133-.573-.3a2.86 2.86 0 0 1-.369-1.358 5.845 5.845 0 0 0-.381-1.438 4.464 4.464 0 0 0-.829-1.377 2.314 2.314 0 0 0-1.453-.774 2.985 2.985 0 0 0-1.6.332 5.986 5.986 0 0 0-.638.375 2.464 2.464 0 0 1 .213.246 1.113 1.113 0 0 1 .245.517.381.381 0 0 1 0 .131c.367-.311 1.515-1.159 2.405-.444a4.685 4.685 0 0 1 1.34 3.217c.156.986.372 1.228.943 1.5a3.753 3.753 0 0 1 1.756 2.058 3.142 3.142 0 0 1 .108 1.481 1.854 1.854 0 0 0 .627 1.469 2.414 2.414 0 0 1 .943.83 3.1 3.1 0 0 1 .381 2.733 2.049 2.049 0 0 0 .457 2.282 2.423 2.423 0 0 1 .762 1.031 2.9 2.9 0 0 1-.662 2.618 34.794 34.794 0 0 1-2.627 3.17c-1.2 1.3-2.488 2.515-3.809 3.684q-1.18 1.046-2.422 2.018a31.043 31.043 0 0 1-3.4 2.332c-6.811 3.867-11.838 5.98-16.034 6.648l-.5.065-1.111.144c-5.065.5-7.869-.29-9.394-1.22a6.11 6.11 0 0 1-1.458-1.364 3.782 3.782 0 0 1-.775-2.164 6.977 6.977 0 0 1 2.348-5.255c.223.792.864 2.331 2.462 2.227 2.145-.139 7.2-2.5 8.1-3.464 0 0 1.333-.8 1.359-4.2a12.948 12.948 0 0 1-.722-.57 1.46 1.46 0 0 1 .09.763c-.063.4-.165.8-.165.8-.072.323-.166.793-.25 1.118a2.626 2.626 0 0 1-.395.834 3.579 3.579 0 0 1-.646.689 8.088 8.088 0 0 1-1.654 1.016l-.9.44q-.446.218-.9.426c-.6.275-1.209.532-1.829.748a7.72 7.72 0 0 1-1.884.446 1.874 1.874 0 0 1-.88-.109 1.746 1.746 0 0 1-.653-.825 11.371 11.371 0 0 0-.662-1.7 2.1 2.1 0 0 0-.905.6c-.313.317-.619.65-.92.986a10.62 10.62 0 0 0-1.148 1.563v-.012a4.83 4.83 0 0 0-.3.574c-.027.056-.058.108-.083.164l-.022.083a6.712 6.712 0 0 0-.413 1.522l-.026.1c-.011.122-.027.247-.033.367q-.016.288-.007.578v.141c0 .047.01.111.014.167 0 .031 0 .059.005.09a4.787 4.787 0 0 0 .979 2.473 6.379 6.379 0 0 0 2.24 1.757 11.885 11.885 0 0 0 2.6.9 18.916 18.916 0 0 0 2.682.4q.674.055 1.35.067c.226 0 .451.005.682 0h.045l.075-.005.082-.009.164-.017.329-.035 1.314-.141 1.326-.2c.448-.069.864-.121 1.315-.215s.885-.174 1.312-.268.863-.193 1.3-.3.866-.222 1.293-.346.854-.252 1.278-.39c.214-.071.419-.13.641-.211l.621-.226.621-.227.621-.254c.414-.171.827-.342 1.227-.532.811-.362 1.605-.766 2.392-1.162s1.575-.816 2.34-1.262c.611-.341 1.206-.729 1.8-1.1a50.176 50.176 0 0 0 10.491-9.106z" class="cls-1" data-name="Caminho 5991" transform="translate(-99.694 -593.41)"/>
            <path id="Caminho_5992" d="M196.111 664.091a11.592 11.592 0 0 0-.392-1.48c-.122-.364-.344-1.386-.6-1.267a1.51 1.51 0 0 0-.389.5 2.523 2.523 0 0 1-.22.3 2.378 2.378 0 0 1-.261.265 1.866 1.866 0 0 1-1 .4 3.874 3.874 0 0 1-.769-.01 4.329 4.329 0 0 1-.764-.142 6.1 6.1 0 0 1-1.4-.562 12.824 12.824 0 0 1-1.194-.812l-.452-.333c-.04-.029-.134-.089-.218-.16l-.345-.253c-1.674 1.767-3.278 3.32-4.556 4.448a36.032 36.032 0 0 1-5.107 3.982l.336.173 1.229.545 1.23.543c.415.168.835.321 1.252.482l1.254.477a11.292 11.292 0 0 0 1.346.359 19.789 19.789 0 0 0 2.688.4 15.13 15.13 0 0 0 2.739 0 8.622 8.622 0 0 0 2.7-.67 5.081 5.081 0 0 0 2.2-1.794 5.642 5.642 0 0 0 .883-2.662l.02-.186v-.167l.007-.333c0-.224-.02-.465-.031-.7a13.211 13.211 0 0 0-.186-1.343z" class="cls-1" data-name="Caminho 5992" transform="translate(-144.495 -627.016)"/>
            <path id="Caminho_5993" d="M131.772 618.259a8.967 8.967 0 0 1-.019-.366l-.066-.091-.049-.005a1.929 1.929 0 0 0-.361.006 1.725 1.725 0 0 0-1.147.58 4.233 4.233 0 0 0-.818 1.989 6.284 6.284 0 0 0 .333 2.839 19.307 19.307 0 0 0 3.943 6.3c.457.517.94 1.027 1.452 1.516.257.248.514.479.792.72l.825.736a21.61 21.61 0 0 0 1.691 1.375 7.7 7.7 0 0 0 1.838 1.023 2.981 2.981 0 0 0 .942.184 1.821 1.821 0 0 0 .438-.052c.064-.012.152-.049.19-.058a2.112 2.112 0 0 0 .231-.11c.5-.253.917-.869.761-1.247-.006-.019-.017-.04-.025-.06-.1-.033-.2-.075-.293-.112l-.263-.125a17.959 17.959 0 0 1-3.812-2.74c-.566-.523-1.1-1.073-1.6-1.635s-.957-1.157-1.387-1.739a21.108 21.108 0 0 1-2.166-3.626 16.8 16.8 0 0 1-1.189-3.63 13.36 13.36 0 0 1-.241-1.672z" class="cls-1" data-name="Caminho 5993" transform="translate(-115.729 -602.015)"/>
            <path id="Caminho_5994" d="M181.367 606.835l-.006.012s.013-.029.006-.012z" class="cls-1" data-name="Caminho 5994" transform="translate(-146.199 -595.603)"/>
        </g>
    </g>
</svg>
