<svg xmlns="http://www.w3.org/2000/svg" width="41.367" height="47.376" viewBox="0 0 41.367 47.376">
    <defs>
        <style>
            .cls-1{fill:#002042}
        </style>
    </defs>
    <g id="Grupo_6678" data-name="Grupo 6678" transform="translate(-178.814 -26.397)">
        <path id="Caminho_5975" d="M218.215 30.657a2.461 2.461 0 0 0-1.893-1.61l-16.4-2.6a1.389 1.389 0 0 0-.769 0l-16.477 2.59a2.357 2.357 0 0 0-1.893 1.61 33.82 33.82 0 0 0-1.965 11.5 34.579 34.579 0 0 0 19.628 31.343 2.99 2.99 0 0 0 1.052.283 1.981 1.981 0 0 0 1.052-.283 34.554 34.554 0 0 0 19.632-31.338 33.821 33.821 0 0 0-1.967-11.495zm-17.832 38.517a1.668 1.668 0 0 1-.885.238 2.518 2.518 0 0 1-.885-.238 29.116 29.116 0 0 1-16.53-26.392 28.478 28.478 0 0 1 1.655-9.679 1.985 1.985 0 0 1 1.594-1.356l13.873-2.18a1.171 1.171 0 0 1 .648 0l13.812 2.186a2.072 2.072 0 0 1 1.594 1.356 28.476 28.476 0 0 1 1.655 9.679 29.094 29.094 0 0 1-16.531 26.386z" class="cls-1" data-name="Caminho 5975"/>
        <path id="Caminho_5976" d="M305.791 189.863a2.223 2.223 0 0 1-1.516-.6L298.632 184a2.223 2.223 0 0 1 3.032-3.252l3.965 3.7 10.237-11.706a2.223 2.223 0 0 1 3.347 2.927L307.465 189.1a2.222 2.222 0 0 1-1.56.757.87.87 0 0 1-.114.006z" class="cls-1" data-name="Caminho 5976" transform="translate(-108.59 -132.728)"/>
    </g>
</svg>
